<svg height="3262" width="720" xmlns="http://www.w3.org/2000/svg">
<rect height="3262" fill="#555" width="720"></rect>
<text fill="#7f7" font-family="Courier New" font-size="12" xml:space="preserve">
<tspan x="10" y="26">86 megabytes installed</tspan>
<tspan x="10" y="42"></tspan>
<tspan x="10" y="58">node_modules</tspan>
<tspan x="10" y="74">├── UNMET PEER DEPENDENCY grunt@&gt;=0.4.5</tspan>
<tspan x="10" y="90">└─┬ grunt-svg-sprite@1.3.6 </tspan>
<tspan x="10" y="106">  ├─┬ chalk@1.1.3 </tspan>
<tspan x="10" y="122">  │ ├── ansi-styles@2.2.1 </tspan>
<tspan x="10" y="138">  │ ├── escape-string-regexp@1.0.5 </tspan>
<tspan x="10" y="154">  │ ├─┬ has-ansi@2.0.0 </tspan>
<tspan x="10" y="170">  │ │ └── ansi-regex@2.1.1 </tspan>
<tspan x="10" y="186">  │ ├── strip-ansi@3.0.1 </tspan>
<tspan x="10" y="202">  │ └── supports-color@2.0.0 </tspan>
<tspan x="10" y="218">  ├── prettysize@0.0.3 </tspan>
<tspan x="10" y="234">  └─┬ svg-sprite@1.3.6 </tspan>
<tspan x="10" y="250">    ├── async@2.3.0 </tspan>
<tspan x="10" y="266">    ├── css-selector-parser@1.3.0 </tspan>
<tspan x="10" y="282">    ├── cssmin@0.4.3 </tspan>
<tspan x="10" y="298">    ├── cssom@0.3.2 </tspan>
<tspan x="10" y="314">    ├─┬ glob@7.1.1 </tspan>
<tspan x="10" y="330">    │ ├── fs.realpath@1.0.0 </tspan>
<tspan x="10" y="346">    │ ├─┬ inflight@1.0.6 </tspan>
<tspan x="10" y="362">    │ │ └── wrappy@1.0.2 </tspan>
<tspan x="10" y="378">    │ ├── inherits@2.0.3 </tspan>
<tspan x="10" y="394">    │ ├─┬ minimatch@3.0.3 </tspan>
<tspan x="10" y="410">    │ │ └─┬ brace-expansion@1.1.7 </tspan>
<tspan x="10" y="426">    │ │   ├── balanced-match@0.4.2 </tspan>
<tspan x="10" y="442">    │ │   └── concat-map@0.0.1 </tspan>
<tspan x="10" y="458">    │ ├── once@1.4.0 </tspan>
<tspan x="10" y="474">    │ └── path-is-absolute@1.0.1 </tspan>
<tspan x="10" y="490">    ├─┬ js-yaml@3.8.3 </tspan>
<tspan x="10" y="506">    │ ├─┬ argparse@1.0.9 </tspan>
<tspan x="10" y="522">    │ │ └── sprintf-js@1.0.3 </tspan>
<tspan x="10" y="538">    │ └── esprima@3.1.3 </tspan>
<tspan x="10" y="554">    ├── lodash@4.17.4 </tspan>
<tspan x="10" y="570">    ├─┬ lodash.pluck@3.1.2 </tspan>
<tspan x="10" y="586">    │ ├── lodash._baseget@3.7.2 </tspan>
<tspan x="10" y="602">    │ ├── lodash._topath@3.8.1 </tspan>
<tspan x="10" y="618">    │ ├── lodash.isarray@3.0.4 </tspan>
<tspan x="10" y="634">    │ └─┬ lodash.map@3.1.4 </tspan>
<tspan x="10" y="650">    │   ├── lodash._arraymap@3.0.0 </tspan>
<tspan x="10" y="666">    │   ├─┬ lodash._basecallback@3.3.1 </tspan>
<tspan x="10" y="682">    │   │ ├─┬ lodash._baseisequal@3.0.7 </tspan>
<tspan x="10" y="698">    │   │ │ └── lodash.istypedarray@3.0.6 </tspan>
<tspan x="10" y="714">    │   │ ├── lodash._bindcallback@3.0.1 </tspan>
<tspan x="10" y="730">    │   │ └── lodash.pairs@3.0.1 </tspan>
<tspan x="10" y="746">    │   ├── lodash._baseeach@3.0.4 </tspan>
<tspan x="10" y="762">    │   └─┬ lodash.keys@3.1.2 </tspan>
<tspan x="10" y="778">    │     ├── lodash._getnative@3.9.1 </tspan>
<tspan x="10" y="794">    │     └── lodash.isarguments@3.1.0 </tspan>
<tspan x="10" y="810">    ├─┬ mkdirp@0.5.1 </tspan>
<tspan x="10" y="826">    │ └── minimist@0.0.8 </tspan>
<tspan x="10" y="842">    ├── mustache@2.3.0 </tspan>
<tspan x="10" y="858">    ├─┬ phantomjs-prebuilt@2.1.14 </tspan>
<tspan x="10" y="874">    │ ├── es6-promise@4.0.5 </tspan>
<tspan x="10" y="890">    │ ├─┬ extract-zip@1.5.0 </tspan>
<tspan x="10" y="906">    │ │ ├─┬ concat-stream@1.5.0 </tspan>
<tspan x="10" y="922">    │ │ │ ├─┬ readable-stream@2.0.6 </tspan>
<tspan x="10" y="938">    │ │ │ │ ├── core-util-is@1.0.2 </tspan>
<tspan x="10" y="954">    │ │ │ │ ├── isarray@1.0.0 </tspan>
<tspan x="10" y="970">    │ │ │ │ ├── process-nextick-args@1.0.7 </tspan>
<tspan x="10" y="986">    │ │ │ │ ├── string_decoder@0.10.31 </tspan>
<tspan x="10" y="1002">    │ │ │ │ └── util-deprecate@1.0.2 </tspan>
<tspan x="10" y="1018">    │ │ │ └── typedarray@0.0.6 </tspan>
<tspan x="10" y="1034">    │ │ ├── debug@0.7.4 </tspan>
<tspan x="10" y="1050">    │ │ ├── mkdirp@0.5.0 </tspan>
<tspan x="10" y="1066">    │ │ └─┬ yauzl@2.4.1 </tspan>
<tspan x="10" y="1082">    │ │   └─┬ fd-slicer@1.0.1 </tspan>
<tspan x="10" y="1098">    │ │     └── pend@1.2.0 </tspan>
<tspan x="10" y="1114">    │ ├─┬ fs-extra@1.0.0 </tspan>
<tspan x="10" y="1130">    │ │ ├── graceful-fs@4.1.11 </tspan>
<tspan x="10" y="1146">    │ │ ├── jsonfile@2.4.0 </tspan>
<tspan x="10" y="1162">    │ │ └── klaw@1.3.1 </tspan>
<tspan x="10" y="1178">    │ ├─┬ hasha@2.2.0 </tspan>
<tspan x="10" y="1194">    │ │ ├── is-stream@1.1.0 </tspan>
<tspan x="10" y="1210">    │ │ └─┬ pinkie-promise@2.0.1 </tspan>
<tspan x="10" y="1226">    │ │   └── pinkie@2.0.4 </tspan>
<tspan x="10" y="1242">    │ ├── kew@0.7.0 </tspan>
<tspan x="10" y="1258">    │ ├── progress@1.1.8 </tspan>
<tspan x="10" y="1274">    │ ├─┬ request@2.79.0 </tspan>
<tspan x="10" y="1290">    │ │ ├── aws-sign2@0.6.0 </tspan>
<tspan x="10" y="1306">    │ │ ├── aws4@1.6.0 </tspan>
<tspan x="10" y="1322">    │ │ ├── caseless@0.11.0 </tspan>
<tspan x="10" y="1338">    │ │ ├─┬ combined-stream@1.0.5 </tspan>
<tspan x="10" y="1354">    │ │ │ └── delayed-stream@1.0.0 </tspan>
<tspan x="10" y="1370">    │ │ ├── extend@3.0.0 </tspan>
<tspan x="10" y="1386">    │ │ ├── forever-agent@0.6.1 </tspan>
<tspan x="10" y="1402">    │ │ ├─┬ form-data@2.1.4 </tspan>
<tspan x="10" y="1418">    │ │ │ └── asynckit@0.4.0 </tspan>
<tspan x="10" y="1434">    │ │ ├─┬ har-validator@2.0.6 </tspan>
<tspan x="10" y="1450">    │ │ │ ├─┬ commander@2.9.0 </tspan>
<tspan x="10" y="1466">    │ │ │ │ └── graceful-readlink@1.0.1 </tspan>
<tspan x="10" y="1482">    │ │ │ └─┬ is-my-json-valid@2.16.0 </tspan>
<tspan x="10" y="1498">    │ │ │   ├── generate-function@2.0.0 </tspan>
<tspan x="10" y="1514">    │ │ │   ├─┬ generate-object-property@1.2.0 </tspan>
<tspan x="10" y="1530">    │ │ │   │ └── is-property@1.0.2 </tspan>
<tspan x="10" y="1546">    │ │ │   ├── jsonpointer@4.0.1 </tspan>
<tspan x="10" y="1562">    │ │ │   └── xtend@4.0.1 </tspan>
<tspan x="10" y="1578">    │ │ ├─┬ hawk@3.1.3 </tspan>
<tspan x="10" y="1594">    │ │ │ ├── boom@2.10.1 </tspan>
<tspan x="10" y="1610">    │ │ │ ├── cryptiles@2.0.5 </tspan>
<tspan x="10" y="1626">    │ │ │ ├── hoek@2.16.3 </tspan>
<tspan x="10" y="1642">    │ │ │ └── sntp@1.0.9 </tspan>
<tspan x="10" y="1658">    │ │ ├─┬ http-signature@1.1.1 </tspan>
<tspan x="10" y="1674">    │ │ │ ├── assert-plus@0.2.0 </tspan>
<tspan x="10" y="1690">    │ │ │ ├─┬ jsprim@1.4.0 </tspan>
<tspan x="10" y="1706">    │ │ │ │ ├── assert-plus@1.0.0 </tspan>
<tspan x="10" y="1722">    │ │ │ │ ├── extsprintf@1.0.2 </tspan>
<tspan x="10" y="1738">    │ │ │ │ ├── json-schema@0.2.3 </tspan>
<tspan x="10" y="1754">    │ │ │ │ └── verror@1.3.6 </tspan>
<tspan x="10" y="1770">    │ │ │ └─┬ sshpk@1.13.0 </tspan>
<tspan x="10" y="1786">    │ │ │   ├── asn1@0.2.3 </tspan>
<tspan x="10" y="1802">    │ │ │   ├── assert-plus@1.0.0 </tspan>
<tspan x="10" y="1818">    │ │ │   ├── bcrypt-pbkdf@1.0.1 </tspan>
<tspan x="10" y="1834">    │ │ │   ├─┬ dashdash@1.14.1 </tspan>
<tspan x="10" y="1850">    │ │ │   │ └── assert-plus@1.0.0 </tspan>
<tspan x="10" y="1866">    │ │ │   ├── ecc-jsbn@0.1.1 </tspan>
<tspan x="10" y="1882">    │ │ │   ├─┬ getpass@0.1.6 </tspan>
<tspan x="10" y="1898">    │ │ │   │ └── assert-plus@1.0.0 </tspan>
<tspan x="10" y="1914">    │ │ │   ├── jodid25519@1.0.2 </tspan>
<tspan x="10" y="1930">    │ │ │   ├── jsbn@0.1.1 </tspan>
<tspan x="10" y="1946">    │ │ │   └── tweetnacl@0.14.5 </tspan>
<tspan x="10" y="1962">    │ │ ├── is-typedarray@1.0.0 </tspan>
<tspan x="10" y="1978">    │ │ ├── json-stringify-safe@5.0.1 </tspan>
<tspan x="10" y="1994">    │ │ ├─┬ mime-types@2.1.15 </tspan>
<tspan x="10" y="2010">    │ │ │ └── mime-db@1.27.0 </tspan>
<tspan x="10" y="2026">    │ │ ├── oauth-sign@0.8.2 </tspan>
<tspan x="10" y="2042">    │ │ ├── qs@6.3.2 </tspan>
<tspan x="10" y="2058">    │ │ ├── stringstream@0.0.5 </tspan>
<tspan x="10" y="2074">    │ │ ├─┬ tough-cookie@2.3.2 </tspan>
<tspan x="10" y="2090">    │ │ │ └── punycode@1.4.1 </tspan>
<tspan x="10" y="2106">    │ │ ├── tunnel-agent@0.4.3 </tspan>
<tspan x="10" y="2122">    │ │ └── uuid@3.0.1 </tspan>
<tspan x="10" y="2138">    │ ├─┬ request-progress@2.0.1 </tspan>
<tspan x="10" y="2154">    │ │ └── throttleit@1.0.0 </tspan>
<tspan x="10" y="2170">    │ └─┬ which@1.2.14 </tspan>
<tspan x="10" y="2186">    │   └── isexe@2.0.0 </tspan>
<tspan x="10" y="2202">    ├─┬ svgo@0.7.0 </tspan>
<tspan x="10" y="2218">    │ ├─┬ coa@1.0.1 </tspan>
<tspan x="10" y="2234">    │ │ └── q@1.5.0 </tspan>
<tspan x="10" y="2250">    │ ├── colors@1.1.2 </tspan>
<tspan x="10" y="2266">    │ ├─┬ csso@2.2.1 </tspan>
<tspan x="10" y="2282">    │ │ ├── clap@1.1.3 </tspan>
<tspan x="10" y="2298">    │ │ └── source-map@0.5.6 </tspan>
<tspan x="10" y="2314">    │ ├─┬ js-yaml@3.6.1 </tspan>
<tspan x="10" y="2330">    │ │ └── esprima@2.7.3 </tspan>
<tspan x="10" y="2346">    │ ├── sax@1.2.2 </tspan>
<tspan x="10" y="2362">    │ └── whet.extend@0.9.9 </tspan>
<tspan x="10" y="2378">    ├─┬ vinyl@1.2.0 </tspan>
<tspan x="10" y="2394">    │ ├── clone@1.0.2 </tspan>
<tspan x="10" y="2410">    │ ├── clone-stats@0.0.1 </tspan>
<tspan x="10" y="2426">    │ └── replace-ext@0.0.1 </tspan>
<tspan x="10" y="2442">    ├─┬ winston@2.3.1 </tspan>
<tspan x="10" y="2458">    │ ├── async@1.0.0 </tspan>
<tspan x="10" y="2474">    │ ├── colors@1.0.3 </tspan>
<tspan x="10" y="2490">    │ ├── cycle@1.0.3 </tspan>
<tspan x="10" y="2506">    │ ├── eyes@0.1.8 </tspan>
<tspan x="10" y="2522">    │ ├── isstream@0.1.2 </tspan>
<tspan x="10" y="2538">    │ └── stack-trace@0.0.9 </tspan>
<tspan x="10" y="2554">    ├── xmldom@0.1.22 </tspan>
<tspan x="10" y="2570">    ├── xpath@0.0.23 </tspan>
<tspan x="10" y="2586">    └─┬ yargs@5.0.0 </tspan>
<tspan x="10" y="2602">      ├─┬ cliui@3.2.0 </tspan>
<tspan x="10" y="2618">      │ └── wrap-ansi@2.1.0 </tspan>
<tspan x="10" y="2634">      ├── decamelize@1.2.0 </tspan>
<tspan x="10" y="2650">      ├── get-caller-file@1.0.2 </tspan>
<tspan x="10" y="2666">      ├── lodash.assign@4.2.0 </tspan>
<tspan x="10" y="2682">      ├─┬ os-locale@1.4.0 </tspan>
<tspan x="10" y="2698">      │ └─┬ lcid@1.0.0 </tspan>
<tspan x="10" y="2714">      │   └── invert-kv@1.0.0 </tspan>
<tspan x="10" y="2730">      ├─┬ read-pkg-up@1.0.1 </tspan>
<tspan x="10" y="2746">      │ ├─┬ find-up@1.1.2 </tspan>
<tspan x="10" y="2762">      │ │ └── path-exists@2.1.0 </tspan>
<tspan x="10" y="2778">      │ └─┬ read-pkg@1.1.0 </tspan>
<tspan x="10" y="2794">      │   ├─┬ load-json-file@1.1.0 </tspan>
<tspan x="10" y="2810">      │   │ ├─┬ parse-json@2.2.0 </tspan>
<tspan x="10" y="2826">      │   │ │ └─┬ error-ex@1.3.1 </tspan>
<tspan x="10" y="2842">      │   │ │   └── is-arrayish@0.2.1 </tspan>
<tspan x="10" y="2858">      │   │ ├── pify@2.3.0 </tspan>
<tspan x="10" y="2874">      │   │ └─┬ strip-bom@2.0.0 </tspan>
<tspan x="10" y="2890">      │   │   └── is-utf8@0.2.1 </tspan>
<tspan x="10" y="2906">      │   ├─┬ normalize-package-data@2.3.6 </tspan>
<tspan x="10" y="2922">      │   │ ├── hosted-git-info@2.4.2 </tspan>
<tspan x="10" y="2938">      │   │ ├─┬ is-builtin-module@1.0.0 </tspan>
<tspan x="10" y="2954">      │   │ │ └── builtin-modules@1.1.1 </tspan>
<tspan x="10" y="2970">      │   │ ├── semver@5.3.0 </tspan>
<tspan x="10" y="2986">      │   │ └─┬ validate-npm-package-license@3.0.1 </tspan>
<tspan x="10" y="3002">      │   │   ├─┬ spdx-correct@1.0.2 </tspan>
<tspan x="10" y="3018">      │   │   │ └── spdx-license-ids@1.2.2 </tspan>
<tspan x="10" y="3034">      │   │   └── spdx-expression-parse@1.0.4 </tspan>
<tspan x="10" y="3050">      │   └── path-type@1.1.0 </tspan>
<tspan x="10" y="3066">      ├── require-directory@2.1.1 </tspan>
<tspan x="10" y="3082">      ├── require-main-filename@1.0.1 </tspan>
<tspan x="10" y="3098">      ├── set-blocking@2.0.0 </tspan>
<tspan x="10" y="3114">      ├─┬ string-width@1.0.2 </tspan>
<tspan x="10" y="3130">      │ ├── code-point-at@1.1.0 </tspan>
<tspan x="10" y="3146">      │ └─┬ is-fullwidth-code-point@1.0.0 </tspan>
<tspan x="10" y="3162">      │   └── number-is-nan@1.0.1 </tspan>
<tspan x="10" y="3178">      ├── which-module@1.0.0 </tspan>
<tspan x="10" y="3194">      ├── window-size@0.2.0 </tspan>
<tspan x="10" y="3210">      ├── y18n@3.2.1 </tspan>
<tspan x="10" y="3226">      └─┬ yargs-parser@3.2.0 </tspan>
<tspan x="10" y="3242">        └── camelcase@3.0.0</tspan>
</text>
</svg>
